<?xml version="1.0" encoding="UTF-8"?>
<!DOCTYPE svg PUBLIC "-//W3C//DTD SVG 1.1//EN" "http://www.w3.org/Graphics/SVG/1.1/DTD/svg11.dtd">
<!-- Creator: CorelDRAW X7 -->
<svg xmlns="http://www.w3.org/2000/svg" xml:space="preserve" width="106.684mm" height="38.8423mm" version="1.1" style="shape-rendering:geometricPrecision; text-rendering:geometricPrecision; image-rendering:optimizeQuality; fill-rule:evenodd; clip-rule:evenodd"
viewBox="0 0 6190 2254"
 xmlns:xlink="http://www.w3.org/1999/xlink">
 <defs>
  <style type="text/css">
   <![CDATA[
    .fil2 {fill:#001561}
    .fil16 {fill:#002170}
    .fil18 {fill:#00368A}
    .fil8 {fill:#007AE2}
    .fil9 {fill:#0084F0}
    .fil25 {fill:#012B7C}
    .fil24 {fill:#014BA5}
    .fil34 {fill:#014DAA}
    .fil22 {fill:#0154B3}
    .fil28 {fill:#015CBC}
    .fil11 {fill:#0171D5}
    .fil26 {fill:#024196}
    .fil32 {fill:#031648}
    .fil19 {fill:#0667C8}
    .fil36 {fill:#0A3C89}
    .fil35 {fill:#0B82DB}
    .fil30 {fill:#0C86E8}
    .fil31 {fill:#0E4994}
    .fil17 {fill:#0E64BE}
    .fil5 {fill:#0E8FF5}
    .fil12 {fill:#0F3580}
    .fil33 {fill:#1377D8}
    .fil7 {fill:#616161}
    .fil3 {fill:#6C6C6C}
    .fil1 {fill:#7C7C7C}
    .fil14 {fill:#898989}
    .fil20 {fill:#8E8E8E}
    .fil23 {fill:#9B9B9B}
    .fil10 {fill:#A0A0A0}
    .fil21 {fill:#A6A6A6}
    .fil15 {fill:#B2B2B2}
    .fil13 {fill:#BDBDBD}
    .fil29 {fill:#C2C2C2}
    .fil27 {fill:#CDCDCD}
    .fil6 {fill:#DBDBDB}
    .fil0 {fill:#E8E8E7}
    .fil4 {fill:#F9F9F8}
   ]]>
  </style>
 </defs>
 <g id="Слой_x0020_1">
  <metadata id="CorelCorpID_0Corel-Layer"/>
  <g id="_1465632067104">
   <path class="fil0" d="M3185 168c-83,40 -151,112 -200,163 -66,68 -142,123 -182,207 167,51 68,13 367,13 744,0 2455,-30 2982,19l38 -279 0 -284 -2872 0 0 35 2862 4 -18 222c-99,-63 -2486,-12 -2927,-17 0,0 -33,7 -73,-15 1,-71 -25,-7 23,-68z"/>
   <path class="fil1" d="M3831 1472c-71,43 -62,79 -53,144 -92,-50 -12,-44 -90,-43 -90,1 -579,0 -619,22 -43,23 -45,114 -126,71 -26,-13 -44,-37 -59,-73l-38 19c30,51 65,77 112,118 42,38 95,77 110,124 55,24 1,-1 43,23 32,19 13,12 43,25 62,-27 41,-52 128,-46 118,8 -5,28 151,33 702,20 1648,-1 2379,-1l305 10c67,11 1,-11 20,5l15 -60 25 -294 -42 102c-74,-28 -205,-16 -304,-16 -157,0 -209,-25 -261,32 9,-78 42,-168 -22,-225l0 170 -1587 1c-137,-3 -83,-20 -168,-77 20,-29 21,-32 38,-64z"/>
   <path class="fil2" d="M2919 1834l41 29c2,-4 10,9 14,13l-1388 46c-130,-1 -360,30 -454,-8 44,108 79,96 152,169l110 116c100,79 395,35 606,35 403,0 806,0 1209,0 53,-28 58,-5 112,-37 -51,-48 -71,-107 -125,-158l-66 -65c-33,-40 -31,-33 -61,-61l-1 -59c-15,-47 -68,-86 -110,-124 -47,-41 -82,-67 -112,-118l-1171 0c60,37 980,5 1154,24l149 197 -59 1z"/>
   <path class="fil3" d="M3154 1902c22,43 -7,2 33,51l137 119 135 20c492,31 1705,7 2278,7 76,0 285,17 336,-19 27,21 39,28 52,75 24,-93 27,-199 27,-312l-15 60c-19,-16 47,6 -20,-5l-305 -10c-731,0 -1677,21 -2379,1 -156,-5 -33,-25 -151,-33 -87,-6 -66,19 -128,46z"/>
   <path class="fil4" d="M3262 64c-42,48 -61,48 -77,104 -48,61 -22,-3 -23,68 40,22 73,15 73,15 441,5 2828,-46 2927,17l18 -222 -2862 -4 -56 22z"/>
   <path class="fil5" d="M623 215c-9,62 -26,45 -56,113 -12,28 -11,34 -20,59 89,-39 28,-13 77,-70 8,65 -9,27 38,47 176,-170 181,-123 489,-123 214,0 428,0 642,0 388,0 903,-3 1198,-1 50,-20 93,-64 135,-106 23,-24 40,-49 55,-63 100,-87 73,-17 81,-7l56 -22 0 -35 -2186 0c-99,0 -268,-24 -343,16l-144 140c-29,38 -21,18 -22,52z"/>
   <path class="fil6" d="M2803 538c-43,10 5,-10 -33,15 -6,4 -37,30 -40,33 -29,32 -35,32 -44,82 19,16 26,27 45,44 54,46 13,30 62,32 4,-4 13,-7 15,-7 171,-65 269,-22 551,-33l19 34c51,-55 0,-38 94,-32 98,-3 -43,-60 264,-57l2454 0 0 -358 -38 279c-527,-49 -2238,-19 -2982,-19 -299,0 -200,38 -367,-13z"/>
   <path class="fil7" d="M6152 1843c0,113 -3,219 -27,312 -13,-47 -25,-54 -52,-75 -51,36 -260,19 -336,19 -573,0 -1786,24 -2278,-7l-135 -20c27,55 26,46 71,89 42,40 34,24 61,73l1356 0c275,0 1231,31 1378,0l0 -728 -13 43 -25 294z"/>
   <path class="fil8" d="M523 500c-27,49 -21,15 -50,80l2131 -13c62,-11 157,-97 183,-143 -98,-29 -1598,-30 -1920,-18 -57,2 -67,5 -104,4 -46,-1 -70,-4 -118,0 -31,43 -62,61 -122,90z"/>
   <path class="fil9" d="M662 364l-17 46c48,-4 72,-1 118,0 37,1 47,-2 104,-4 322,-12 1822,-11 1920,18 32,-75 27,-25 33,-29l171 -155c-295,-2 -810,1 -1198,1 -214,0 -428,0 -642,0 -308,0 -313,-47 -489,123z"/>
   <path class="fil10" d="M4718 1347l-32 69 906 -18c73,-18 -25,-15 44,-2 155,28 356,12 518,12l23 -264c-162,88 -795,9 -1025,38 -82,11 -140,60 -193,21 -63,-46 -13,-8 -39,-50l43 -51c-70,29 -244,194 -245,245z"/>
   <path class="fil11" d="M2991 240l-171 155c-6,4 -1,-46 -33,29 -26,46 -121,132 -183,143l-2131 13 -118 85c-13,17 -21,22 -35,40 -20,26 -5,2 -25,37 66,28 89,-15 143,-21 33,-3 123,11 184,12l147 -6c95,0 -43,27 94,12 41,-4 52,-19 99,-33 78,-2 -15,-1 67,-27 68,-22 1635,-18 1657,-11 9,-50 15,-50 44,-82 3,-3 34,-29 40,-33 38,-25 -10,-5 33,-15 40,-84 116,-139 182,-207 49,-51 117,-123 200,-163 16,-56 35,-56 77,-104 -8,-10 19,-80 -81,7 -15,14 -32,39 -55,63 -42,42 -85,86 -135,106z"/>
   <path class="fil12" d="M1488 1649c11,14 16,19 28,31l52 53c2,-3 8,8 11,12 91,94 96,89 251,87 119,-1 240,0 359,0 237,0 496,-11 730,2l59 -1 -149 -197c-174,-19 -1094,13 -1154,-24l-52 -19c53,143 -72,33 -72,33 -43,38 7,14 -63,23z"/>
   <path class="fil13" d="M5114 951c-15,42 -17,40 -12,94 77,45 75,-4 200,-8 92,-2 191,1 284,1 172,0 401,13 566,-6 4,-197 82,-163 0,-194 -35,-65 -148,-38 -283,-38l-603 1c-55,10 -151,91 -152,150z"/>
   <path class="fil13" d="M3462 989c13,35 -14,-1 20,46l36 29c1,0 69,-2 73,-3l36 -9c148,-38 439,6 583,-18 93,-15 31,-23 93,-28 40,-25 60,-49 101,-86l20 -18c64,-58 32,-44 86,-64 -20,-28 -26,-31 -80,-36l-486 -2c-91,0 -238,-20 -305,16 -21,11 -144,140 -177,173z"/>
   <path class="fil14" d="M6177 1144l-23 264c-162,0 -363,16 -518,-12 -69,-13 29,-16 -44,2l-906 18 32 -69c-65,27 -93,36 -113,114l206 0c163,4 633,21 737,-19 64,57 31,147 22,225 52,-57 104,-32 261,-32 99,0 230,-12 304,16l42 -102 13 -43 0 -447 -13 85z"/>
   <path class="fil15" d="M5114 951c-63,26 -8,-4 -60,33 -36,26 -90,76 -91,118l-43 51c26,42 -24,4 39,50 53,39 111,-10 193,-21 230,-29 863,50 1025,-38l13 -85 0 -259c-76,0 -8,-7 -38,38 82,31 4,-3 0,194 -165,19 -394,6 -566,6 -93,0 -192,-3 -284,-1 -125,4 -123,53 -200,8 -5,-54 -3,-52 12,-94z"/>
   <path class="fil16" d="M981 1763c22,53 88,149 151,151 94,38 324,7 454,8l1388 -46c-4,-4 -12,-17 -14,-13l-41 -29c-234,-13 -493,-2 -730,-2 -119,0 -240,-1 -359,0 -155,2 -160,7 -251,-87 -133,50 -319,13 -474,16l-124 2z"/>
   <path class="fil17" d="M1000 951c-14,23 -70,77 -1,108l19 4c2,0 7,0 10,0 54,-1 14,-28 236,-27 145,0 382,26 510,-25 64,-9 140,-110 188,-155l-811 -38c-85,9 -150,87 -151,133z"/>
   <path class="fil18" d="M733 1438c-6,2 -37,11 -42,12 -29,2 -6,4 -49,-8l20 28c37,43 113,140 168,142 134,25 291,-23 574,15l33 -7 19 -84c32,-21 47,-29 91,-41 -55,-72 -76,-45 -94,-148 -5,7 -40,56 -40,58l-25 40c-43,-33 -281,-17 -350,-17 -104,-1 -255,-11 -305,10z"/>
   <path class="fil19" d="M132 932c83,-34 65,27 199,-12 44,-13 43,-16 101,-14 65,3 105,20 184,19 96,-2 -7,-45 139,-12 51,-1 179,-137 207,-207 -47,14 -58,29 -99,33 -137,15 1,-12 -94,-12l-147 6c-61,-1 -151,-15 -184,-12 -54,6 -77,49 -143,21 -79,68 -125,71 -163,110l2 -34c-8,-65 -26,-28 -2,-112 -64,26 -79,34 -132,113 28,42 80,112 132,113z"/>
   <path class="fil20" d="M3019 1461c-60,24 -44,12 -93,60 -2,3 -24,29 -24,29 -23,35 -14,10 -18,43 15,36 33,60 59,73 81,43 83,-48 126,-71 40,-22 529,-21 619,-22 78,-1 -2,-7 90,43 -9,-65 -18,-101 53,-144 30,-13 28,-6 62,-42 49,-52 26,-21 51,-83 -161,94 -234,65 -491,64 -329,-2 -301,144 -445,105l11 -55z"/>
   <path class="fil21" d="M3189 1291c-17,62 -31,64 41,73 133,16 3,-67 335,-72 228,-3 334,39 466,-50l83 -51c65,-32 27,2 57,-70 -175,68 -555,-5 -703,42l-123 -42c-47,27 -55,40 -96,80 -5,5 -35,35 -37,38 -29,37 -22,17 -23,52z"/>
   <path class="fil22" d="M793 1159c-55,154 39,6 -26,148 101,-7 33,-18 112,-31 26,-71 16,-41 67,-80 14,-10 52,-38 77,-44l502 -7c68,4 21,25 90,-15 76,-45 5,-36 83,-47 53,15 22,44 38,-19 70,-39 13,2 38,-53 -128,51 -365,25 -510,25 -222,-1 -182,26 -236,27 -3,0 -8,0 -10,0l-19 -4c-69,-31 -13,-85 1,-108 -65,27 -127,89 -174,148l-33 60z"/>
   <path class="fil23" d="M3189 1291l-147 117c-29,38 -22,18 -23,53l-11 55c144,39 116,-107 445,-105 257,1 330,30 491,-64 38,-1 4,11 42,-15 13,-8 35,-32 48,-45 40,-40 53,-48 80,-96l-83 51c-132,89 -238,47 -466,50 -332,5 -202,88 -335,72 -72,-9 -58,-11 -41,-73z"/>
   <path class="fil24" d="M879 1276c130,-20 -17,4 139,17 90,7 362,15 434,-9 35,-11 -35,-23 58,-12 29,-1 20,6 55,-20l133 -169c-78,11 -7,2 -83,47 -69,40 -22,19 -90,15l-502 7c-25,6 -63,34 -77,44 -51,39 -41,9 -67,80z"/>
   <path class="fil25" d="M830 1612c22,53 88,149 151,151l124 -2c155,-3 341,34 474,-16 -3,-4 -9,-15 -11,-12l-52 -53c-12,-12 -17,-17 -28,-31l-51 -29 -33 7c-283,-38 -440,10 -574,-15z"/>
   <path class="fil15" d="M3345 1121l123 42c148,-47 528,26 703,-42 55,-1 -18,18 32,-9 19,-11 25,-18 39,-31 29,-29 40,-43 61,-75 -62,5 0,13 -93,28 -144,24 -435,-20 -583,18l-36 9c-4,1 -72,3 -73,3l-36 -29c-34,-47 -7,-11 -20,-46l-117 132z"/>
   <path class="fil26" d="M879 1276c-35,30 -36,38 -78,80 -82,83 -50,-1 -68,82 50,-21 201,-11 305,-10 69,0 307,-16 350,17l25 -40c0,-2 35,-51 40,-58 55,-32 35,-12 57,-75 -93,-11 -23,1 -58,12 -72,24 -344,16 -434,9 -156,-13 -9,-37 -139,-17z"/>
   <path class="fil27" d="M2793 744c20,48 -4,27 42,72 60,59 8,21 52,22l245 -11c92,4 40,1 114,36 58,-68 16,-42 94,-25 56,-1 -17,17 32,-9 5,-3 38,-29 40,-30 47,-48 36,-34 60,-93 -94,-6 -43,-23 -94,32l-19 -34c-282,11 -380,-32 -551,33 -2,0 -11,3 -15,7z"/>
   <path class="fil28" d="M132 932c31,70 -2,5 27,45 36,51 66,86 124,87 144,-74 -83,67 222,11l77 -32c23,-12 44,-22 78,-35 45,-1 -6,38 53,-22 45,-46 22,-23 42,-73 -146,-33 -43,10 -139,12 -79,1 -119,-16 -184,-19 -58,-2 -57,1 -101,14 -134,39 -116,-22 -199,12z"/>
   <path class="fil29" d="M2887 838c34,83 154,196 227,245 73,-49 193,-162 226,-245 -78,-17 -36,-43 -94,25 -74,-35 -22,-32 -114,-36l-245 11z"/>
   <path class="fil30" d="M415 423c-48,112 25,113 51,49l12 61c93,-48 -1,24 45,-33 60,-29 91,-47 122,-90l17 -46c-47,-20 -30,18 -38,-47 -49,57 12,31 -77,70 9,-25 8,-31 20,-59 30,-68 47,-51 56,-113 -60,24 -20,-1 -72,42 -43,35 -135,119 -136,166z"/>
   <path class="fil31" d="M642 1442c43,12 20,10 49,8 5,-1 36,-10 42,-12 18,-83 -14,1 68,-82 42,-42 43,-50 78,-80 -79,13 -11,24 -112,31 65,-142 -29,6 26,-148 -81,32 -56,24 -125,101l-49 46c-34,32 -28,22 -53,60l76 76z"/>
   <path class="fil32" d="M3209 2234c22,15 -2,9 41,17 20,3 47,3 68,1 60,-6 52,-18 138,-18 -27,-49 -19,-33 -61,-73 -45,-43 -44,-34 -71,-89l-137 -119c-40,-49 -11,-8 -33,-51 -30,-13 -11,-6 -43,-25 -42,-24 12,1 -43,-23l1 59c30,28 28,21 61,61l66 65c54,51 74,110 125,158 -54,32 -59,9 -112,37z"/>
   <path class="fil33" d="M132 706c-24,84 -6,47 2,112l-2 34c38,-39 84,-42 163,-110 20,-35 5,-11 25,-37 14,-18 22,-23 35,-40 -49,-27 -53,-36 -101,12 20,-15 10,-7 26,-33l17 -34c21,-50 1,-24 5,-74 -55,22 -168,105 -170,170z"/>
   <path class="fil34" d="M283 1064l151 189c48,-32 75,-66 118,-109 83,-82 74,-52 108,-136 -34,13 -55,23 -78,35l-77 32c-305,56 -78,-85 -222,-11z"/>
   <path class="fil35" d="M302 536c-4,50 16,24 -5,74l-17 34c-16,26 -6,18 -26,33 48,-48 52,-39 101,-12l118 -85c29,-65 23,-31 50,-80 -46,57 48,-15 -45,33l-12 -61c-26,64 -99,63 -51,-49 -55,22 -36,3 -84,51 -68,68 -28,20 -29,62z"/>
   <path class="fil36" d="M1437 1620l51 29c70,-9 20,15 63,-23 0,0 125,110 72,-33 -1,-31 8,-19 -22,-53 -13,-15 -37,-32 -54,-45 -44,12 -59,20 -91,41l-19 84z"/>
  </g>
 </g>
</svg>
