<?xml version="1.0" encoding="UTF-8"?>
<!DOCTYPE svg PUBLIC "-//W3C//DTD SVG 1.1//EN" "http://www.w3.org/Graphics/SVG/1.1/DTD/svg11.dtd">
<!-- Creator: CorelDRAW X7 -->
<svg xmlns="http://www.w3.org/2000/svg" xml:space="preserve" width="175.082mm" height="69.7198mm" version="1.1" style="shape-rendering:geometricPrecision; text-rendering:geometricPrecision; image-rendering:optimizeQuality; fill-rule:evenodd; clip-rule:evenodd"
viewBox="0 0 18358 7311"
 xmlns:xlink="http://www.w3.org/1999/xlink">
 <defs>
  <style type="text/css">
   <![CDATA[
    .fil17 {fill:#00125F}
    .fil11 {fill:#001661}
    .fil2 {fill:#001963}
    .fil6 {fill:#001C66}
    .fil109 {fill:#001E69}
    .fil42 {fill:#002371}
    .fil119 {fill:#002A7B}
    .fil16 {fill:#00388E}
    .fil31 {fill:#004299}
    .fil96 {fill:#004DB6}
    .fil69 {fill:#0053C0}
    .fil84 {fill:#0055A9}
    .fil148 {fill:#0067CA}
    .fil147 {fill:#006ACD}
    .fil164 {fill:#0073DB}
    .fil156 {fill:#0074DA}
    .fil144 {fill:#0075DD}
    .fil154 {fill:#0079E1}
    .fil155 {fill:#007EE6}
    .fil153 {fill:#0080EB}
    .fil151 {fill:#0084EF}
    .fil10 {fill:#011258}
    .fil103 {fill:#011559}
    .fil35 {fill:#012676}
    .fil30 {fill:#012E80}
    .fil54 {fill:#013183}
    .fil93 {fill:#013386}
    .fil132 {fill:#013F95}
    .fil27 {fill:#014EA8}
    .fil33 {fill:#0154B1}
    .fil160 {fill:#0155AF}
    .fil90 {fill:#015DBC}
    .fil32 {fill:#0161C2}
    .fil49 {fill:#016DD1}
    .fil149 {fill:#0170D6}
    .fil101 {fill:#0176D6}
    .fil5 {fill:#022270}
    .fil22 {fill:#0248A1}
    .fil81 {fill:#0252AD}
    .fil47 {fill:#0260C4}
    .fil48 {fill:#0263C5}
    .fil161 {fill:#027AE3}
    .fil110 {fill:#031957}
    .fil52 {fill:#045AB7}
    .fil145 {fill:#0464DB}
    .fil118 {fill:#051245}
    .fil89 {fill:#0557B3}
    .fil163 {fill:#06184D}
    .fil91 {fill:#0651BC}
    .fil78 {fill:#07113F}
    .fil162 {fill:#071546}
    .fil87 {fill:#0767D6}
    .fil115 {fill:#0784DE}
    .fil83 {fill:#078EF2}
    .fil106 {fill:#096EC5}
    .fil75 {fill:#0A3B7F}
    .fil77 {fill:#0A3B80}
    .fil99 {fill:#0B6CC1}
    .fil146 {fill:#0B6DC3}
    .fil141 {fill:#0B71CE}
    .fil114 {fill:#0B91FC}
    .fil66 {fill:#0C54AB}
    .fil74 {fill:#0D6DC3}
    .fil113 {fill:#0D8EFE}
    .fil117 {fill:#0E295D}
    .fil8 {fill:#0E327B}
    .fil50 {fill:#0E3880}
    .fil60 {fill:#0E7FE1}
    .fil111 {fill:#0E92F9}
    .fil24 {fill:#0F3580}
    .fil12 {fill:#0F3884}
    .fil139 {fill:#0F5EB6}
    .fil25 {fill:#0F63BD}
    .fil68 {fill:#0F84E6}
    .fil59 {fill:#0F86EC}
    .fil55 {fill:#0F8CF3}
    .fil7 {fill:#0F93F9}
    .fil40 {fill:#1054A8}
    .fil38 {fill:#1067C1}
    .fil72 {fill:#108AF4}
    .fil152 {fill:#1090F5}
    .fil58 {fill:#1176D5}
    .fil62 {fill:#117BDB}
    .fil100 {fill:#1182DB}
    .fil76 {fill:#125DB4}
    .fil57 {fill:#126AC7}
    .fil140 {fill:#127BCA}
    .fil56 {fill:#134DA0}
    .fil92 {fill:#135CBD}
    .fil116 {fill:#1387F4}
    .fil112 {fill:#1390F4}
    .fil67 {fill:#14418C}
    .fil73 {fill:#156FCA}
    .fil159 {fill:#156FD0}
    .fil95 {fill:#1664B6}
    .fil85 {fill:#166DC2}
    .fil143 {fill:#1753A5}
    .fil94 {fill:#1A4A97}
    .fil79 {fill:#1A6FD2}
    .fil138 {fill:#525651}
    .fil21 {fill:#5B5B5B}
    .fil137 {fill:#5E5E5E}
    .fil121 {fill:#626262}
    .fil136 {fill:#656565}
    .fil120 {fill:#6A6A6A}
    .fil131 {fill:#6E6E6E}
    .fil135 {fill:#737373}
    .fil166 {fill:#747474}
    .fil167 {fill:#777777}
    .fil165 {fill:#787878}
    .fil127 {fill:#7B7B7B}
    .fil19 {fill:#7F7F7F}
    .fil126 {fill:#828282}
    .fil134 {fill:#838383}
    .fil34 {fill:#868686}
    .fil133 {fill:#878787}
    .fil128 {fill:#8A8A8A}
    .fil65 {fill:#8B8B8C}
    .fil36 {fill:#8E8E8E}
    .fil51 {fill:#8F8F8F}
    .fil29 {fill:#8F9AAA}
    .fil130 {fill:#909090}
    .fil129 {fill:#929292}
    .fil28 {fill:#939393}
    .fil63 {fill:#949494}
    .fil18 {fill:#959595}
    .fil41 {fill:#999999}
    .fil123 {fill:#9A9A9A}
    .fil86 {fill:#9C9C9C}
    .fil45 {fill:#9F9F9F}
    .fil23 {fill:#A3A3A3}
    .fil158 {fill:#A5A5A5}
    .fil124 {fill:#A7A7A7}
    .fil64 {fill:darkgray}
    .fil26 {fill:#ACACAC}
    .fil14 {fill:#ADADAD}
    .fil61 {fill:#AFAFAF}
    .fil82 {fill:#B0B0B0}
    .fil39 {fill:#B1B1B1}
    .fil70 {fill:#B2B2B2}
    .fil122 {fill:#B4B4B4}
    .fil142 {fill:#B5B5B5}
    .fil53 {fill:#B7B7B7}
    .fil37 {fill:#B8B8B8}
    .fil44 {fill:#B9B9B9}
    .fil157 {fill:#BABABA}
    .fil125 {fill:#BDBDBD}
    .fil71 {fill:#BEBEBE}
    .fil20 {fill:#C1C1C1}
    .fil150 {fill:#C3C3C3}
    .fil88 {fill:#C4C4C4}
    .fil1 {fill:#C5C5C5}
    .fil9 {fill:#C7C7C7}
    .fil43 {fill:#CBCBCB}
    .fil46 {fill:#D1D5C7}
    .fil15 {fill:#D4D4D4}
    .fil13 {fill:#D7D7D7}
    .fil107 {fill:#D7DDE2}
    .fil3 {fill:#DADADA}
    .fil104 {fill:#E0E0E0}
    .fil80 {fill:#E4E4E4}
    .fil105 {fill:#E5E5E5}
    .fil102 {fill:#E9E9E9}
    .fil98 {fill:#EAEAEA}
    .fil0 {fill:#F0F0F0}
    .fil97 {fill:#F7F7F7}
    .fil108 {fill:#FAFAFA}
    .fil4 {fill:#FCFCFC}
   ]]>
  </style>
 </defs>
 <g id="Слой_x0020_1">
  <metadata id="CorelCorpID_0Corel-Layer"/>
  <g id="_2197676895728">
   <path class="fil0" d="M18296 793c66,42 54,110 53,173 -65,106 11,234 -50,341 -72,11 -111,-48 -164,-76 -111,-29 -224,-18 -335,-18 -2465,0 -4929,0 -7394,-1 -354,0 -708,-1 -1061,52 -165,25 -335,42 -499,-15 -196,-148 6,-242 48,-358 47,-48 102,-78 169,-87 33,-3 66,-2 98,2 302,-174 645,-143 964,-145 2557,-18 5113,-11 7669,-8 131,0 261,9 389,40 55,14 88,52 113,100z"/>
   <path class="fil1" d="M10276 3185c228,-405 514,-650 1040,-608 664,53 1336,13 2045,13 -142,228 -240,433 -449,551 -260,174 -548,163 -844,148 -406,-21 -813,-21 -1219,6 -128,-2 -256,-8 -383,23 -109,26 -205,22 -190,-133z"/>
   <path class="fil2" d="M3839 6789c-39,-57 -155,-50 -133,-158 2,-193 122,-274 291,-254 798,94 1598,28 2397,42 734,14 1469,-3 2204,10 168,3 334,-13 496,-62 207,-7 251,117 232,291 -67,183 -223,212 -386,213 -1593,2 -3186,8 -4779,-3 -114,-1 -219,-35 -322,-79z"/>
   <path class="fil3" d="M10790 2084c-112,104 -281,7 -393,111 -235,92 -472,-10 -710,10 -312,26 -627,1 -941,10 -65,2 -147,-19 -191,14 -213,160 -341,47 -460,-122 -30,-32 -43,-71 -43,-115 3,-59 30,-106 76,-142 25,-12 51,-18 79,-16 149,31 295,-70 444,-10 270,-28 539,-55 809,-55 2763,0 5525,-2 8288,4 180,0 406,-74 507,178 -41,105 -127,81 -212,80 -2359,-12 -4719,-3 -7078,-4 -63,0 -130,-20 -189,18 -5,3 -8,15 -6,19 4,8 13,13 20,20z"/>
   <path class="fil4" d="M18296 793c-19,-19 -37,-38 -56,-56 -138,-173 -49,-367 -45,-513 4,24 -36,54 -86,79 -131,66 -270,69 -411,69 -2466,0 -4931,0 -7397,0 -47,0 -94,2 -140,-2 -111,-11 -267,-19 -255,-153 12,-135 169,-64 257,-64 2494,-5 4988,-4 7481,-4 90,0 179,0 268,-8 36,-17 -6,-71 5,-36 2,7 -2,9 -8,13 -73,57 -157,28 -236,28 -2484,2 -4968,3 -7452,-3 -91,-1 -232,89 -281,-83 60,-34 127,-22 192,-22 2679,-1 5359,-1 8038,-1 38,0 75,2 112,8 77,229 49,461 14,693 0,18 0,36 0,55z"/>
   <path class="fil5" d="M3366 6236c-65,-62 -193,-50 -204,-175 23,-112 26,-212 205,-140 190,77 404,22 606,7 378,-28 754,104 1132,4 1151,-18 2301,-42 3451,11 105,39 233,84 205,217 -24,113 -145,162 -258,186 -110,24 -222,12 -333,26 -923,4 -1845,17 -2767,-4 -586,-14 -1170,-85 -1757,-27 -109,11 -197,-43 -280,-105z"/>
   <path class="fil6" d="M3366 6236c202,109 399,-21 601,-11 1413,76 2827,61 4241,60 253,41 513,109 674,-184 207,-32 220,109 229,255 -2,14 -4,28 -6,41 -60,132 -179,112 -290,112 -1508,0 -3015,0 -4523,0 -56,0 -126,16 -165,-11 -203,-138 -317,-26 -421,133 -137,-112 -257,-237 -340,-395z"/>
   <path class="fil7" d="M2209 226c-6,-87 48,-135 115,-174 17,3 35,5 52,8 2190,9 4379,3 6568,3 106,-23 215,4 321,-16 75,29 132,73 139,161 -52,169 -181,204 -337,194 -34,-4 -67,-12 -99,-23 -607,-27 -1214,-10 -1820,-10 -1568,-1 -3136,-7 -4703,3 -108,-3 -164,157 -292,96 -71,-101 1,-170 56,-242z"/>
   <path class="fil8" d="M8600 6005c-1195,0 -2391,0 -3587,0 -124,-11 -172,-96 -192,-205 6,-32 20,-60 41,-84 70,-79 162,-74 257,-73 839,9 1678,-3 2516,7 306,4 617,48 685,-372 13,-9 27,-14 43,-15 29,-13 56,-11 82,7 68,171 139,339 270,478 68,73 131,164 53,273 -59,22 -115,21 -168,-16z"/>
   <path class="fil9" d="M15269 2922c2,-116 81,-173 169,-224 54,20 94,61 140,95 68,54 106,-5 150,-41 28,-7 55,-7 83,-2 634,11 1268,0 1822,5 -574,-11 -1228,15 -1882,-12 -129,76 -208,27 -257,-101 55,-69 134,-52 205,-52 815,-1 1630,-1 2444,1 70,0 152,-26 199,58 -75,123 53,294 -93,401 -96,79 -209,67 -321,69 -737,9 -1474,-19 -2211,13 -160,7 -395,61 -448,-210z"/>
   <path class="fil10" d="M9945 7289c-1024,4 -2048,9 -3072,11 -773,2 -1546,4 -2319,-2 -93,0 -206,51 -284,-53 -1,-187 109,-236 274,-230 1708,69 3417,20 5125,26 33,-7 66,-14 99,-21 87,-7 167,2 213,91 22,66 11,125 -36,178z"/>
   <path class="fil11" d="M3839 6789c1680,0 3360,1 5040,-1 151,0 328,43 394,-167 186,0 252,126 231,276 -22,162 -180,136 -294,136 -1529,1 -3057,14 -4585,-5 -187,-60 -382,-33 -573,-54 -119,-6 -145,-120 -213,-185z"/>
   <path class="fil12" d="M4800 5140c60,63 127,115 213,135 159,110 338,36 507,58 723,0 1445,0 2168,0 156,14 318,-35 470,39 92,185 31,292 -172,293 -977,2 -1954,19 -2930,-11 -130,-4 -259,27 -388,-3 -145,-32 -260,-109 -348,-229 -38,-62 -70,-127 -45,-204 167,-79 357,-7 525,-78z"/>
   <path class="fil13" d="M10790 2084c-69,-14 -150,27 -228,-75 189,-14 358,-37 527,-38 2246,-2 4493,0 6739,-5 137,0 275,57 412,4 12,-19 29,-27 52,-21 26,19 35,51 56,74 -47,92 -130,86 -216,84 -2447,-51 -4895,-8 -7342,-23z"/>
   <path class="fil14" d="M18343 3203c0,1311 0,2623 -1,3934 0,56 2,113 -52,151 -48,-52 -66,-115 -68,-183 -6,-229 -2,-458 -4,-686 0,-80 1,-159 1,-239 1,-139 2,-278 1,-416 -2,-45 0,-90 1,-135 -2,-29 -1,-59 -1,-88 4,-100 3,-200 3,-299 0,-69 2,-138 3,-207 -1,-27 -1,-54 0,-81 0,-40 2,-80 2,-120 -2,-27 -1,-54 -1,-81 -1,-40 -1,-80 -1,-121 -1,-82 -1,-164 -2,-245 -1,-56 0,-111 -1,-167 -1,-28 -1,-55 -1,-83 -5,-68 8,-138 -31,-200 -61,-63 -139,-41 -211,-42 -762,-3 -1524,26 -2287,-19 -248,-15 -502,15 -734,127 -193,28 -404,108 -493,-170 -7,-27 -1,-50 19,-70l0 0c70,-53 135,-64 230,-41 174,41 354,31 496,-111 25,-15 51,-26 78,-34 116,-43 234,-68 356,-52 732,93 1467,27 2200,43 136,4 286,17 363,-142 6,-28 11,-57 16,-86 6,-43 20,-84 44,-122 21,-26 46,-31 75,-15z"/>
   <path class="fil15" d="M8096 2081c160,-33 205,52 193,221 97,-172 232,-169 382,-162 575,27 1154,-68 1726,55 -86,189 -230,328 -392,451 -109,-2 -196,-88 -308,-80 -437,-61 -886,62 -1316,-94 -67,-24 -19,63 -62,60 -130,-74 -200,-190 -224,-335 -33,-39 -29,-78 1,-116z"/>
   <path class="fil16" d="M4246 4385c-21,98 9,175 93,231 38,35 48,81 59,128 12,72 92,114 84,195 -8,39 -30,65 -70,74 -70,-49 -131,0 -196,17 -29,-2 -56,-7 -84,-16 -604,-82 -1208,-67 -1812,-14 -45,19 -90,24 -137,5 -66,-59 -131,-119 -197,-178 -19,-28 -16,-55 7,-80 174,-219 409,-237 668,-225 390,18 782,-4 1173,9 148,5 250,-42 328,-159 31,-12 58,-8 84,13z"/>
   <path class="fil17" d="M4052 6974c167,-133 340,-80 513,-16 96,54 200,27 301,27 1524,2 3049,1 4573,2 119,0 245,-24 338,83 -83,91 -192,54 -290,54 -1546,2 -3093,2 -4639,1 -74,0 -161,19 -221,-12 -177,-91 -274,-10 -357,132 -159,-20 -140,-184 -218,-271z"/>
   <path class="fil18" d="M18295 4381c-1,93 -1,186 -2,279 -347,127 -707,63 -1062,76 -174,7 -349,0 -523,4 -171,2 -123,132 -132,229 -3,108 8,218 -58,315 -25,24 -54,41 -87,52 -631,53 -1263,12 -1894,23 -288,5 -576,4 -864,-2 -53,0 -106,0 -158,-1 -574,-3 -1148,1 -1722,-1 -82,0 -165,5 -247,-8 -49,-5 -95,-19 -134,-49 -24,-27 -26,-56 -6,-86 604,6 1208,14 1812,16 986,3 1972,3 2957,0 93,-1 250,54 262,-74 15,-163 127,-372 -102,-492 -37,-43 -84,-81 -69,-148 189,-67 384,-97 587,-100 480,-8 963,48 1442,-33z"/>
   <path class="fil19" d="M11402 5279c37,1 74,3 110,5 64,67 41,133 -3,200 -77,88 -135,201 -269,222 -170,-86 -345,-16 -518,-19 -483,-7 -968,27 -1450,-22 -73,-7 -127,11 -176,59 -36,26 -77,38 -121,36 -111,-19 -177,-121 -282,-152 -150,-57 -207,-191 -262,-325 -23,-7 -46,-14 -68,-20 19,-16 39,-32 58,-48 144,-78 232,0 307,111 69,104 177,49 268,64 648,-99 1297,-104 1947,-44 148,-59 294,-127 459,-67z"/>
   <path class="fil20" d="M15269 2922c116,191 331,147 479,137 755,-52 1508,-20 2261,-9 115,2 184,-81 286,-72 36,44 31,89 3,135 -85,145 -212,176 -376,172 -648,-13 -1297,-23 -1944,4 -290,12 -570,64 -824,-124 -26,-20 -46,-46 -59,-77 58,-55 116,-111 174,-166z"/>
   <path class="fil21" d="M18282 7124c3,55 6,109 8,164 -269,4 -539,13 -808,13 -2347,1 -4693,1 -7039,0 -74,0 -148,-9 -222,-14 -72,-34 -104,-89 -91,-169 8,-29 24,-52 48,-71 43,-18 87,-18 133,-5 61,20 118,50 172,86 137,49 278,30 417,30 2332,1 4664,1 6995,0 87,8 160,-24 232,-70 60,-39 121,-51 155,36z"/>
   <path class="fil22" d="M4509 4149c-22,50 -56,88 -112,101 -543,46 -1086,101 -1624,-37 -80,-21 -138,62 -211,16 -85,-205 83,-259 202,-344 537,-70 1073,-51 1607,37 119,19 221,73 138,227z"/>
   <path class="fil23" d="M12130 3928c-134,49 -77,242 -216,286 -491,142 -991,65 -1487,58 -171,-2 -330,1 -474,103 -24,16 -52,27 -81,33 -73,3 -141,-20 -205,-52 -37,-24 -61,-56 -75,-97 -3,-28 3,-53 18,-76 182,-73 419,-34 525,-260 63,-65 135,-102 228,-74 324,124 661,46 992,60 218,9 445,57 654,-62 60,-2 124,-11 121,81z"/>
   <path class="fil24" d="M4621 5557c283,18 566,50 849,53 812,7 1623,-1 2434,5 169,2 277,-29 248,-227 -33,-38 -33,-76 0,-115l168 5c-10,46 -38,98 -25,136 101,289 -78,311 -286,311 -672,0 -1343,1 -2015,-1 -316,-1 -634,-1 -949,-20 -91,-5 -133,56 -200,77 -134,35 -208,-33 -253,-150 0,-28 10,-53 29,-74z"/>
   <path class="fil25" d="M5467 3094c-80,106 -159,213 -287,267 -86,-11 -160,71 -249,36 -607,-15 -1213,6 -1819,-13 -87,-3 -190,43 -256,-58 -17,-51 -4,-97 22,-141 23,-162 124,-247 276,-281 57,67 88,156 207,157 576,3 1152,5 1728,25 48,1 90,-22 130,-47 93,-31 199,-117 248,55z"/>
   <path class="fil26" d="M18293 71c-2781,1 -5563,1 -8344,1 -33,28 -69,29 -107,11 -14,-13 -21,-27 -19,-42 2,-16 4,-24 8,-24 2015,-3 4030,-6 6045,-9 728,0 1455,-2 2183,3 96,0 206,-45 289,48 -13,29 -31,34 -55,12z"/>
   <path class="fil27" d="M4509 4149c25,-233 -211,-184 -284,-189 -483,-32 -968,-24 -1453,-28 -30,-60 -5,-112 23,-164 44,-65 104,-105 181,-117 510,-22 1020,-22 1530,-17 86,1 164,-24 242,-54 29,-9 58,-9 87,-1 109,147 -71,193 -101,292 -75,92 -150,185 -225,278z"/>
   <path class="fil28" d="M11524 4550c-23,83 -52,162 -122,219 -242,104 -481,158 -753,93 -213,-51 -442,-23 -663,15 -164,27 -331,56 -490,-30 -106,-183 39,-249 152,-332 30,-15 61,-25 93,-32 527,-48 1055,8 1582,-10 74,-3 148,14 201,77z"/>
   <path class="fil29" d="M9831 17c1,13 1,26 1,39 -22,98 -101,112 -181,122 -38,2 -76,-1 -114,-9 -23,-4 -47,-12 -69,-20 -63,-32 -136,-40 -195,-80 -75,42 -151,38 -227,1 -61,32 -128,21 -192,21 -2121,1 -4241,0 -6361,0 -56,0 -112,6 -166,-16l-3 -23c56,-72 137,-45 207,-45 2434,2 4867,6 7300,10z"/>
   <path class="fil30" d="M4285 5220c19,56 38,112 57,168 -72,150 -214,126 -341,134 -250,16 -504,-29 -749,50 -182,65 -364,78 -542,-13 -102,-73 -225,-126 -238,-276 143,-125 325,-130 495,-133 414,-8 829,-38 1240,44 29,-2 55,7 78,26z"/>
   <path class="fil31" d="M2548 4211c151,-157 303,4 455,2 458,-7 916,-10 1374,-11 6,0 13,31 20,48 -50,45 -101,90 -151,135 -25,-2 -49,-4 -73,-5 -52,87 -133,129 -231,131 -444,10 -888,17 -1332,-4 -65,-3 -127,-25 -182,-62 -64,-44 -82,-99 -40,-168 41,-53 87,-90 160,-66z"/>
   <path class="fil32" d="M411 3100c-55,-22 -95,-59 -118,-115 9,-37 22,-72 44,-104 44,-65 82,-136 162,-164 27,-6 54,-7 82,-4 393,33 787,31 1181,17 165,-6 331,18 497,-8 52,-8 115,-2 119,77 -60,78 -120,156 -180,234 -110,54 -228,70 -348,76 -378,-31 -756,-93 -1130,27 -37,3 -73,2 -109,-4 -66,-10 -129,-44 -200,-32z"/>
   <path class="fil33" d="M4845 3595c-18,0 -37,0 -56,0 -489,95 -985,43 -1478,55 -82,2 -171,17 -220,-79 4,-147 84,-228 227,-225 565,11 1131,-35 1695,24 55,-14 107,-85 167,-9 -85,88 -80,244 -221,289 -42,-10 -71,-47 -114,-55z"/>
   <path class="fil34" d="M11402 5279c-20,124 -143,10 -187,81 -86,-125 -137,13 -205,28 -85,-76 -189,-57 -290,-57 -481,1 -961,1 -1442,3 -83,0 -167,15 -235,-51 0,-211 147,-214 303,-226 487,-39 975,-12 1462,-39 134,-25 325,110 385,-135 2,-10 33,-1 45,15 11,13 11,29 -1,47 5,122 123,172 169,268 -1,22 -2,44 -4,66z"/>
   <path class="fil35" d="M2710 5559c62,20 105,-176 186,-9 74,153 180,-140 268,6 304,50 608,49 912,11 186,-23 368,-24 545,46 41,100 142,121 224,168 0,19 0,37 0,56 -181,179 -404,77 -608,85 -396,15 -792,-39 -1189,-21 -139,-89 -249,-205 -338,-342z"/>
   <path class="fil36" d="M11237 4945c-118,19 -157,290 -339,107 -399,-2 -798,2 -1197,-1 -90,-1 -188,23 -265,-51 -33,-44 -39,-93 -21,-145 18,-35 46,-44 82,-27 252,28 499,-31 747,-58 375,-40 767,171 1127,-75 10,25 21,49 31,74 -55,59 -110,117 -165,176z"/>
   <path class="fil37" d="M15095 3088c21,1 42,2 62,3 93,223 295,206 475,193 724,-52 1449,-13 2174,-23 163,-2 332,-21 489,53 0,19 0,38 0,57 -117,102 -260,85 -398,85 -632,3 -1265,5 -1897,0 -281,-3 -556,0 -787,195l0 0c-192,69 -379,111 -507,-113 59,-211 245,-312 389,-450z"/>
   <path class="fil38" d="M5238 3091c-4,122 -86,88 -159,82 -555,-43 -1111,-32 -1667,-26 -168,2 -301,-26 -258,-243 3,-32 5,-63 8,-94 42,-30 88,-39 137,-20 160,84 330,113 510,113 381,0 762,-17 1142,11 114,9 281,-26 287,177z"/>
   <path class="fil39" d="M12707 3318c-76,94 -151,188 -226,281 -247,145 -513,202 -800,189 -423,-18 -849,18 -1269,-59 -32,-224 165,-195 282,-256 164,-26 330,-24 494,-13 322,22 634,-28 943,-108 45,-1 89,3 133,15 124,148 171,-22 249,-63 68,-39 134,-50 194,14z"/>
   <path class="fil40" d="M2548 4211c-38,19 -75,38 -113,57 -191,175 -361,167 -506,-59 135,-286 385,-469 607,-677 46,-30 94,-48 149,-29 116,75 30,240 143,316 -19,38 -37,75 -56,113 -95,77 -186,157 -224,279z"/>
   <path class="fil41" d="M11524 4550c-620,-1 -1239,-1 -1859,-2 -20,-133 70,-154 168,-168 19,0 38,0 56,-1 61,-115 183,-101 272,-93 490,42 977,9 1466,-11 48,-1 91,14 123,52 -59,92 -136,164 -226,223z"/>
   <path class="fil42" d="M3048 5901c46,-113 126,-83 227,-81 523,10 1046,61 1570,17 56,56 112,112 168,168 -192,96 -383,15 -576,6 -324,-15 -652,-15 -971,26 -102,13 -230,-206 -304,24 -42,-50 -160,-47 -114,-160z"/>
   <path class="fil43" d="M8319 2532c33,-27 -72,-140 76,-101 435,116 890,-21 1326,99 8,202 -47,301 -277,210 -212,-84 -416,29 -622,69 -50,49 -48,132 -111,172 -131,-149 -261,-299 -392,-449z"/>
   <path class="fil44" d="M12299 3427c-37,0 -75,0 -112,0 -336,-38 -668,62 -1004,27 -135,-14 -279,13 -388,-99 -22,-30 -25,-62 -9,-96 333,-118 678,-43 1016,-52 371,-10 745,51 1110,-66 -69,59 -137,118 -205,177 -67,-1 -137,-17 -184,53 -66,53 -154,17 -224,56z"/>
   <path class="fil45" d="M11750 4327c-568,56 -1136,89 -1704,17 -63,-8 -106,18 -157,35 70,-149 192,-196 351,-192 558,12 1116,18 1674,27 -36,65 -83,115 -164,113z"/>
   <path class="fil46" d="M8096 2081l-1 116c-143,-47 -288,-58 -439,-58 -1538,2 -3077,-2 -4615,-4 -8,-38 5,-67 37,-88 47,-27 99,-36 152,-40 1408,-9 2816,-1 4224,-4 130,-1 261,7 390,-14 79,-29 158,-57 245,-40 2,44 5,88 7,132z"/>
   <path class="fil26" d="M10394 3707c392,-57 784,2 1175,10 315,6 607,-91 912,-118 -106,122 -201,255 -351,329 -25,-44 -66,-52 -111,-53 -206,105 -421,30 -631,25 -325,-7 -652,34 -976,-26 -30,-15 -59,-33 -86,-52 -15,-61 16,-94 68,-115z"/>
   <path class="fil47" d="M3276 2811c-38,-1 -76,-1 -114,-1 24,-88 55,-168 170,-157 732,40 1464,7 2196,18 71,0 133,16 166,88 -8,45 3,99 -60,116 -65,9 -131,15 -197,13 -585,1 -1170,1 -1755,2 -139,-9 -281,-2 -406,-79z"/>
   <path class="fil48" d="M2378 2799c-505,-18 -1010,40 -1517,-4 -111,-10 -230,72 -331,-41 -23,-100 45,-133 119,-161 450,51 903,20 1354,34 153,5 294,-16 411,-123 74,-57 149,-93 230,-11 5,14 11,27 16,40 -80,104 -156,212 -282,266z"/>
   <path class="fil49" d="M2875 2306c9,38 -12,52 -45,57 -68,34 -122,101 -209,93 -325,-18 -650,-11 -975,-18 -112,-2 -253,24 -292,-143 44,-161 174,-177 308,-176 352,1 704,-19 1055,7 115,5 116,110 158,180z"/>
   <path class="fil50" d="M7704 5388l-2242 0c-33,-38 -33,-76 0,-115 747,-25 1494,-25 2242,0 33,39 33,77 0,115z"/>
   <path class="fil9" d="M8768 2755c348,-145 587,-151 838,-19 39,-69 77,-137 115,-206 139,-70 198,55 284,116 -94,111 -187,223 -281,334 -66,-131 -107,27 -163,15 -232,-179 -464,-101 -697,-2 -119,-45 -101,-144 -96,-238z"/>
   <path class="fil51" d="M16278 4547c46,25 55,68 57,115 -785,0 -1570,-1 -2355,-1 49,-197 243,-97 352,-172 50,-12 101,-15 152,-18 503,-23 1006,-9 1509,-9 101,1 207,0 285,85z"/>
   <path class="fil52" d="M1875 3091c96,-87 202,-115 323,-58 -60,122 -165,201 -268,281 -31,27 -69,40 -106,56 -186,82 -397,77 -582,164 -100,47 -174,-30 -258,-59 -50,-23 -99,-49 -142,-84 -42,-39 -70,-86 -73,-144 11,-135 90,-131 194,-105 308,78 608,-26 912,-51z"/>
   <path class="fil53" d="M10394 3707c-19,19 -38,37 -56,56 -78,-28 -149,-67 -215,-118 -20,-15 -38,-32 -54,-51 -42,-57 -50,-116 -15,-179 74,-77 148,-153 222,-230 33,104 94,113 188,70 104,-49 216,-63 322,4 0,19 0,37 0,56 28,107 -60,157 -112,224 -93,57 -207,78 -280,168z"/>
   <path class="fil54" d="M4230 5220c-68,-59 -16,254 -141,43 -49,-82 -155,-41 -234,-41 -462,0 -925,-24 -1383,61 -116,-72 -208,-169 -289,-278 28,-22 56,-43 84,-65 469,78 933,190 1417,155 188,-14 371,-23 545,-99 19,0 37,0 56,0 30,28 37,64 31,103 -11,53 -52,84 -86,121z"/>
   <path class="fil55" d="M1704 786c19,-19 37,-37 56,-55 91,-26 182,-52 274,-69 75,-10 101,-77 147,-120 82,-77 110,-12 134,56 18,104 -56,183 -73,277 -13,49 -35,95 -58,140 -55,115 -124,210 -270,202 -57,1 -116,-154 -173,7 -14,42 -80,51 -123,24 -45,-27 -40,-79 -40,-126 2,-127 74,-228 126,-336z"/>
   <path class="fil56" d="M1929 4209c158,112 326,136 506,59 -18,37 -37,74 -55,112 -92,169 -295,227 -392,391 0,19 -1,38 -2,56 -139,-64 -215,-207 -277,-318 -95,-170 137,-202 220,-300z"/>
   <path class="fil57" d="M3276 2811c131,0 262,0 392,0 97,81 213,53 322,55 503,8 1006,-12 1509,11 51,19 97,41 77,110 -19,54 -54,91 -109,107 -75,-104 -153,-34 -229,-3 -103,-182 -284,-98 -424,-105 -369,-21 -740,0 -1110,-11 -155,-5 -335,17 -428,-164z"/>
   <path class="fil58" d="M416 2139c95,-130 206,-243 337,-338 17,142 6,302 228,282 26,-2 42,57 49,94 4,40 -1,79 -14,116 -27,61 -72,108 -121,151 -42,32 -87,55 -142,49 -113,-13 -230,-14 -328,-88 -75,-86 -68,-175 -9,-266z"/>
   <path class="fil59" d="M1704 786c-24,141 -48,282 -73,429 155,-4 110,-130 150,-205 62,50 59,155 150,175 33,55 -2,96 -30,138 -43,49 -89,95 -150,121 -26,9 -52,13 -79,14 -164,-30 -330,-57 -349,-271 72,-187 222,-298 381,-401z"/>
   <path class="fil60" d="M920 1579c51,-88 109,-168 224,-176 107,105 343,34 359,263 16,91 -39,151 -92,211 -27,30 -57,57 -90,81 -48,32 -99,51 -157,37 -170,-87 -340,-174 -244,-416z"/>
   <path class="fil61" d="M10054 3415c20,60 40,120 59,180 19,55 38,4 57,0 29,83 171,53 168,168 0,19 0,38 0,56 14,13 19,25 14,38 -5,12 -9,19 -14,19 -81,-1 -137,37 -168,111 -179,-13 -384,89 -518,-117 134,-152 268,-304 402,-455z"/>
   <path class="fil62" d="M920 1579c-29,220 166,277 283,391 4,154 -68,231 -225,223 -8,-45 -11,-96 -76,-91 -69,5 -118,143 -207,25 -76,-102 -6,-169 42,-246 13,-21 11,-53 16,-80 55,-74 111,-148 167,-222z"/>
   <path class="fil63" d="M9441 4828c0,37 0,74 0,112 -123,120 -300,145 -436,243 -138,-52 -156,-199 -235,-298 36,-39 71,-77 106,-115 52,-34 73,-100 131,-128 128,43 257,104 386,0 28,-1 51,9 70,30 2,53 20,109 -22,156z"/>
   <path class="fil64" d="M9652 3870c172,39 345,78 518,117 -120,243 -345,222 -561,224 -30,-106 -137,17 -178,-59 15,-140 127,-204 221,-282z"/>
   <path class="fil65" d="M8770 4885c121,56 194,149 223,279 -32,152 -96,265 -281,225 -78,-90 -145,-197 -291,-174 117,-110 233,-220 349,-330z"/>
   <path class="fil66" d="M1819 3315c37,0 74,-1 111,-1 -134,199 -294,375 -470,538 -216,200 -230,200 -380,-79 8,-11 15,-21 22,-32 258,-111 504,-241 717,-426z"/>
   <path class="fil67" d="M4230 5220c0,-46 10,-88 55,-112 37,-38 47,-103 112,-112 19,-19 37,-37 56,-56 23,-31 20,-75 53,-100 111,88 217,180 294,300 -143,212 -338,88 -515,80 -18,0 -37,0 -55,0z"/>
   <path class="fil68" d="M1483 1690c-44,-57 -87,-114 -133,-173 -71,22 -6,127 -108,146 -32,-83 -65,-171 -98,-260 60,-72 119,-144 179,-216 84,150 228,197 384,223 34,140 -96,172 -162,247 -19,15 -39,26 -62,33z"/>
   <path class="fil45" d="M9431 4152c47,55 195,-187 178,59l0 0c-43,69 -2,95 56,113 62,2 128,-10 168,56 -56,56 -112,112 -168,168l0 0c-49,89 -190,-8 -224,112 -19,0 -37,0 -56,0 -88,-95 -105,-215 -114,-337 54,-57 107,-114 160,-171z"/>
   <path class="fil41" d="M9271 4323c111,88 118,210 114,337 -130,283 -261,90 -391,0 -18,-12 -24,-26 -20,-40 4,-15 9,-23 15,-23 83,-102 167,-205 282,-274z"/>
   <path class="fil69" d="M5574 2698c-724,14 -1448,-27 -2171,21 -48,4 -63,-27 -71,-65 747,-1 1494,-2 2242,-3 19,10 25,21 19,31 -6,11 -12,16 -19,16z"/>
   <path class="fil70" d="M14706 3538c153,108 333,101 508,113 -135,255 -361,167 -551,120 -67,-16 -121,8 -178,-8 54,-94 131,-166 221,-225z"/>
   <path class="fil71" d="M8768 2755c38,74 75,149 113,223 160,-45 215,94 304,173 15,40 14,78 -3,116 -36,46 -77,78 -139,50 -131,-92 -238,-207 -332,-336 10,-77 -26,-167 57,-226z"/>
   <path class="fil72" d="M2209 226c-18,77 -36,154 -54,231 22,44 -2,79 -25,113 -95,116 -201,194 -358,111 152,-145 200,-391 437,-455z"/>
   <path class="fil64" d="M13858 4620c-68,3 -82,147 -157,83 -80,-69 10,-127 59,-174 110,-107 223,-211 335,-316 21,-23 42,-23 65,-4 10,25 12,51 7,77 -39,115 -148,177 -210,275 -27,30 -61,47 -99,59z"/>
   <path class="fil71" d="M9553 2978c59,-135 116,-110 171,2 -93,95 -186,190 -279,285 -36,-5 -68,-20 -98,-41 -50,-36 -102,-71 -98,-144 73,-119 201,-72 304,-102z"/>
   <path class="fil39" d="M9385 3202c20,21 40,42 60,63 -117,145 -228,343 -402,52 39,-20 79,-39 118,-58 76,-14 134,-100 224,-57z"/>
   <path class="fil73" d="M139 2477c37,-39 75,-78 112,-117 138,-22 128,117 191,175 8,25 10,50 7,75 -21,68 -64,110 -137,118 -41,-4 -72,-24 -97,-55 -29,-64 -106,-109 -76,-196z"/>
   <path class="fil74" d="M250 2642c19,19 37,37 57,56 60,51 114,-48 175,-7 17,23 14,45 -8,64 -37,56 -75,111 -112,167 -72,-21 -124,-78 -192,-106 -32,-33 -64,-66 -95,-99 -20,-43 -35,-95 8,-122 64,-41 117,9 167,47z"/>
   <path class="fil75" d="M7704 5388c0,-38 0,-76 0,-115 149,-24 298,-23 448,0 0,39 0,77 0,115 -150,0 -299,0 -448,0z"/>
   <path class="fil70" d="M14149 4213c-18,0 -36,0 -54,0 79,-194 229,-327 390,-450 0,19 0,38 1,57 37,106 -46,167 -91,242 -79,56 -116,179 -246,151z"/>
   <path class="fil76" d="M2715 3539c-60,-2 -119,-4 -179,-7 49,-179 165,-293 342,-347 2,43 4,87 6,130 -59,72 -79,174 -169,224z"/>
   <path class="fil77" d="M5462 5273c0,39 0,77 0,115 -147,-48 -347,114 -449,-113 150,-28 299,-25 449,-2z"/>
   <path class="fil78" d="M10169 7126c18,54 35,107 52,161 -92,1 -184,1 -276,2 0,-54 0,-109 0,-163 33,-36 10,-99 62,-127 99,-15 120,70 162,127z"/>
   <path class="fil79" d="M417 2530c-127,14 -53,-169 -166,-170 59,-71 65,-181 165,-221 -3,98 4,193 58,279 28,61 -6,90 -57,112z"/>
   <path class="fil66" d="M1080 3773c-116,-4 -160,-102 -225,-173 12,-47 42,-77 87,-93 69,-17 126,10 185,41 189,99 97,157 -29,211l-18 14z"/>
   <path class="fil52" d="M586 3090c37,0 75,0 112,0 129,32 51,138 74,207 -39,54 -87,55 -141,23 -37,-38 -74,-75 -112,-113 9,-46 19,-92 67,-117z"/>
   <path class="fil80" d="M18293 71c18,-4 37,-8 55,-12 -22,226 64,460 -52,678 -1,-222 -2,-444 -3,-666z"/>
   <path class="fil81" d="M4845 3595c88,-86 101,-15 114,55 -59,89 -132,165 -225,221 37,-92 74,-184 111,-276z"/>
   <path class="fil82" d="M18295 3090c0,-37 0,-74 0,-112 49,-105 -110,-240 47,-329 1,185 1,369 1,554 -15,0 -31,0 -46,0 -31,-37 -35,-75 -2,-113z"/>
   <path class="fil83" d="M1772 681c155,32 246,-59 327,-168 79,99 30,166 -56,224 -94,-41 -191,105 -283,-6 1,-17 6,-34 12,-50z"/>
   <path class="fil84" d="M923 3539c-23,20 -46,41 -68,61 -75,-32 -115,-87 -111,-170 27,-49 72,-59 122,-59 46,1 88,11 112,56 5,49 -22,82 -55,112z"/>
   <path class="fil85" d="M250 2642c-67,6 -171,-75 -175,75 -182,-134 19,-167 64,-240 35,56 120,79 111,165z"/>
   <path class="fil86" d="M13858 4620c22,-24 44,-48 66,-73 131,-94 262,-103 393,1 -85,118 -252,-7 -337,113 -49,11 -94,11 -122,-41z"/>
   <path class="fil9" d="M18348 2023c-18,-18 -36,-36 -54,-54 -50,-75 -70,-158 -70,-247 0,-57 3,-114 14,-171 6,-28 18,-53 35,-77 22,-24 47,-26 74,-7l1 556z"/>
   <path class="fil87" d="M2875 2306c-101,-1 -69,-59 -47,-112 -33,-59 3,-99 38,-139 74,-55 143,-70 194,30 -5,17 -12,34 -19,50 -61,52 -174,53 -166,171z"/>
   <path class="fil88" d="M15550 2811c-73,-2 -110,-40 -112,-113 18,-19 37,-37 56,-56 77,32 126,121 224,112 0,19 0,38 0,56 -56,46 -112,46 -168,1z"/>
   <path class="fil15" d="M18347 1467l-25 -1 -24 0c-51,-55 -49,-112 -4,-170 22,-110 -43,-234 55,-330 -1,167 -1,334 -2,501z"/>
   <path class="fil89" d="M866 3371c-26,49 -73,56 -122,59 -37,-37 -75,-73 -113,-110 49,-5 97,-12 123,-61 19,-26 38,-26 56,0 19,37 38,74 56,112z"/>
   <path class="fil90" d="M586 3090c-2,51 -15,95 -67,117 -36,-35 -72,-71 -108,-107 55,-76 113,-86 175,-10z"/>
   <path class="fil91" d="M5574 2698c0,-16 0,-31 0,-47 45,-3 91,-14 135,-8 43,6 125,-37 117,50 -5,49 -69,79 -132,66 -40,-21 -80,-41 -120,-61z"/>
   <path class="fil92" d="M170 2816c86,-4 179,-21 192,106 -23,21 -46,42 -69,63 -69,-35 -124,-82 -123,-169z"/>
   <path class="fil93" d="M4506 4840c-2,42 -9,80 -53,100 -37,-55 -75,-110 -112,-164 34,-37 68,-37 103,-1 20,22 41,43 62,65z"/>
   <path class="fil94" d="M4444 4775c-35,0 -69,0 -103,1 -1,-54 -1,-107 -2,-160 83,22 92,92 105,159z"/>
   <path class="fil26" d="M8989 4597c1,21 3,42 5,63 -4,75 -42,112 -118,110 1,-82 43,-136 113,-173z"/>
   <path class="fil95" d="M5576 2987c-19,-22 -39,-43 -59,-64 -32,-38 -32,-75 1,-112 50,1 94,13 116,64 -1,46 7,98 -58,112z"/>
   <path class="fil96" d="M2661 2419c56,-19 113,-37 169,-56 -42,71 -93,133 -170,170 0,0 -4,-11 -4,-11 -26,-36 -31,-71 5,-103z"/>
   <path class="fil97" d="M18184 232c-18,-21 -47,-40 -52,-64 -14,-71 44,-41 60,-27 84,72 41,173 46,262 7,111 2,222 2,334 -154,89 -308,-6 -462,-5 -2549,7 -5097,10 -7645,-4 -242,-1 -486,199 -732,8 -3,-3 -81,90 -125,137 -89,97 -142,53 -180,-46 21,-176 213,-246 251,-412 45,-77 97,-146 196,-154 33,2 64,8 94,19 287,104 584,95 882,95 2370,-3 4740,-3 7110,1 202,1 387,-28 555,-144z"/>
   <path class="fil98" d="M8778 1185c373,60 737,-57 1108,-57 2755,-2 5510,-8 8264,-15 65,0 81,22 90,72 -58,53 11,158 -83,196 -32,10 -65,15 -98,17 -130,-18 -260,-22 -391,-22 -2479,0 -4958,0 -7437,1 -111,0 -224,-11 -332,22 -285,48 -572,82 -859,112 -161,18 -319,14 -438,-123 -37,-150 67,-178 176,-203z"/>
   <path class="fil99" d="M8778 1185c-15,97 -142,83 -168,169 -19,155 -154,193 -262,260 -39,10 -78,9 -116,-6 -25,-14 -38,-35 -41,-62 44,-130 163,-199 243,-300 96,-87 182,-184 276,-272 72,-67 143,-161 257,-62 -63,91 -126,182 -189,273z"/>
   <path class="fil100" d="M9382 456c-33,172 -212,231 -286,370 -17,6 -35,8 -53,6 -67,-3 -127,-17 -138,-100 3,-94 51,-168 109,-237 17,-18 37,-34 58,-47 11,-5 23,-10 34,-15 93,-5 190,-60 276,23z"/>
   <path class="fil101" d="M8937 736c35,32 71,64 106,96 -25,27 -51,53 -76,80 -166,-27 -202,135 -300,207 -79,58 -121,165 -234,179 -6,-11 -11,-22 -17,-33 -2,-66 25,-123 58,-178 88,-166 245,-258 391,-362 26,-9 50,-7 72,11z"/>
   <path class="fil102" d="M18184 1353c2,-61 -10,-127 56,-168 1,45 10,87 54,111 1,57 3,114 4,171 -2,17 -3,35 -4,53 -127,5 -108,-88 -110,-167z"/>
   <path class="fil103" d="M9777 7070c-1630,-123 -3262,-24 -4893,-58 -107,-2 -226,42 -319,-54 1536,0 3071,1 4607,-4 92,0 236,67 273,-46 39,-120 -52,-228 -172,-287 5,-120 -23,-216 -168,-224l0 0c-24,-26 -23,-50 1,-75 53,-32 108,-33 165,-12 121,83 173,236 307,307 42,162 299,229 199,453l0 0z"/>
   <path class="fil104" d="M18295 1689c-1,93 -1,186 -1,280 -18,0 -36,1 -54,1 -60,-132 -179,-112 -290,-112 -2889,0 -5778,-3 -8667,6 -191,0 -400,-46 -584,75 -81,53 -99,-62 -155,-82 -16,-39 -7,-70 28,-94 348,-192 712,-285 1118,-281 2703,25 5405,7 8108,15 183,0 408,-69 497,192z"/>
   <path class="fil105" d="M18295 1689c-76,-99 -177,-114 -296,-114 -2901,3 -5801,3 -8701,2 -103,0 -192,8 -283,83 -130,108 -298,148 -471,142 -122,-43 -207,136 -336,56 -16,-1 -33,-2 -50,-2 -35,-50 -4,-90 20,-131 40,-59 94,-103 149,-146 95,-75 189,-150 283,-225 273,191 565,46 845,33 123,-5 251,-30 378,-34 1434,1 2868,0 4302,0 1185,0 2369,4 3553,-4 166,-1 331,77 496,4l0 0c37,56 73,112 110,167 0,56 0,112 1,169z"/>
   <path class="fil106" d="M8214 1750c-19,35 -37,70 -56,106 -23,31 -46,62 -69,93 -45,28 -89,56 -134,84 -70,14 -142,46 -205,-19 -29,-186 129,-234 235,-321 69,-49 88,-194 222,-116l2 1c62,56 7,115 5,172z"/>
   <path class="fil107" d="M8208 1858c117,11 201,-178 336,-56 0,18 0,37 0,55 -83,-6 -151,21 -219,71 -77,58 -108,4 -117,-70z"/>
   <path class="fil108" d="M18184 232c-119,181 -285,229 -499,229 -2473,-7 -4946,-8 -7419,2 -209,1 -406,-47 -609,-58 -38,-2 -71,-80 -106,-122 -27,-82 14,-129 85,-160 65,-22 130,-44 196,-67 39,5 78,11 117,16 97,86 215,46 322,46 2465,3 4929,2 7394,2l276 0c0,18 0,36 0,54l-8024 0c76,152 181,113 265,113 2530,2 5060,2 7589,-1 138,0 275,-35 413,-54z"/>
   <path class="fil109" d="M8600 6005c56,0 112,-1 168,-1 19,-19 42,-24 67,-15 42,33 78,68 46,128 110,219 -152,267 -194,255 -159,-43 -337,22 -479,-87 124,-15 252,31 373,-37 133,-75 181,-148 19,-243z"/>
   <path class="fil110" d="M8881 6117c-19,-38 -37,-75 -56,-112 3,-68 -5,-139 67,-181 47,4 75,33 97,70 46,147 264,250 116,447 0,18 0,37 0,56 -96,-77 -23,-288 -224,-280z"/>
   <path class="fil111" d="M9104 456c-18,19 -37,38 -55,57 -172,141 -386,133 -585,134 -2011,9 -4022,4 -6033,5 -56,0 -112,0 -164,-27 -10,-30 -14,-114 -53,-23 -37,84 -81,131 -171,135 38,-70 65,-143 56,-224 19,-19 38,-38 56,-56 123,10 95,-130 168,-168 26,24 53,46 84,64 137,38 278,24 418,24 1950,1 3900,0 5851,2 145,0 301,-34 428,77z"/>
   <path class="fil112" d="M9104 456c-2160,0 -4320,2 -6480,-3 -105,0 -255,76 -301,-108 69,-45 145,-27 218,-27 2097,-1 4193,-1 6289,0 73,0 150,-17 219,26 18,0 37,1 56,1 32,37 35,74 1,112l-2 -1z"/>
   <path class="fil113" d="M2327 75c606,-5 1213,-14 1819,-14 1634,1 3267,6 4900,9 -76,80 -175,49 -265,49 -2062,2 -4124,2 -6187,0 -90,0 -188,29 -267,-44z"/>
   <path class="fil114" d="M9049 344c-2242,0 -4484,0 -6726,1 0,-19 0,-38 0,-56 2136,-1 4272,-1 6407,1 107,1 226,-42 319,54z"/>
   <path class="fil115" d="M9106 457c0,-37 -1,-75 -1,-112 135,13 221,-54 278,-169 23,-51 54,-86 117,-59l2 0c55,58 6,117 1,176 -16,72 -59,125 -121,163 -92,-18 -184,63 -276,1z"/>
   <path class="fil116" d="M9500 117c-39,20 -78,39 -117,59 -36,-36 -73,-72 -110,-107 79,-2 167,-41 227,48z"/>
   <path class="fil117" d="M8884 5827c-6,64 8,134 -59,178 -19,0 -38,-1 -57,-1 1,-147 -113,-231 -197,-321 -112,-118 -158,-244 -140,-400 92,92 184,184 276,276 76,42 141,98 193,167 18,38 15,72 -16,101z"/>
   <path class="fil88" d="M15718 2754c41,-18 81,-52 122,-53 706,-3 1411,-2 2115,-2 17,103 -49,107 -98,108 -661,2 -1321,2 -1982,-1 -52,0 -105,-34 -157,-52z"/>
   <path class="fil43" d="M15550 2811c56,-1 112,-1 168,-1 -8,58 -22,111 -97,102 -58,-7 -64,-56 -71,-101z"/>
   <path class="fil118" d="M9777 7070c21,-198 -265,-241 -225,-448 18,-18 41,-28 67,-31 162,37 240,179 351,280 29,43 61,85 32,140 -2,47 -11,90 -57,115 -40,-66 -106,-54 -168,-56z"/>
   <path class="fil119" d="M4621 5613c-408,28 -816,68 -1226,57 -97,-3 -185,-12 -231,-114 80,-116 199,-107 322,-114 286,-17 577,60 856,-54 102,40 149,173 279,169 0,18 0,37 0,56z"/>
   <path class="fil120" d="M18283 6174c0,77 0,153 0,230 -41,106 18,230 -59,330 -94,108 -222,79 -340,80 -2470,12 -4941,4 -7411,6 -251,0 -504,38 -711,-157 -81,-76 -183,-135 -159,-271 271,-73 549,-80 827,-81 1824,-5 3649,19 5473,-2 651,-8 1302,16 1952,-1 120,-3 246,11 333,-102 27,-23 59,-34 95,-32z"/>
   <path class="fil121" d="M18240 6677c12,-91 -32,-191 43,-273 -1,240 -1,480 -1,720 -147,-98 -147,146 -266,114 -116,-88 -252,-55 -380,-55 -2287,-2 -4575,-1 -6862,-3 -128,0 -264,33 -380,-54 -46,-1 -88,-11 -113,-56 -131,-180 6,-204 132,-208 168,-5 336,9 504,9 2324,5 4648,-12 6971,10 164,1 296,-29 352,-204z"/>
   <path class="fil19" d="M13647 5285c952,-2 1904,-4 2856,-7 61,39 114,71 199,63 506,-46 1012,-50 1516,29 83,38 25,130 69,182 0,21 -1,41 -1,62 -60,75 -142,71 -228,71 -540,5 -1079,4 -1619,-6 -24,-21 -44,-45 -60,-73 -78,-123 -202,-76 -306,-77 -698,-4 -1397,3 -2096,-6 -146,-2 -362,36 -330,-238z"/>
   <path class="fil122" d="M15213 3651c127,-277 363,-287 627,-284 818,11 1637,4 2455,3 25,167 -30,271 -214,270 -791,-4 -1583,68 -2371,-40 -174,-24 -331,43 -497,51z"/>
   <path class="fil123" d="M16278 4547c-616,1 -1233,1 -1849,1 -34,-40 -34,-83 -13,-128 100,-105 205,-199 361,-205 259,50 520,34 781,32 663,-5 1326,-3 1988,-1 251,1 500,-2 749,-34 0,56 0,112 0,169 -114,98 -237,126 -393,118 -395,-22 -793,-27 -1189,-11 -142,6 -284,76 -435,59z"/>
   <path class="fil23" d="M18296 3931c0,75 0,150 0,225 -108,84 -232,112 -367,111 -960,-2 -1920,5 -2881,-4 -66,-1 -131,-4 -177,-62 -25,-77 7,-136 61,-187 168,-125 360,-115 557,-113 844,9 1688,0 2532,7 92,1 186,-19 275,23z"/>
   <path class="fil124" d="M18296 3931c-67,22 -110,78 -200,77 -848,-14 -1696,-14 -2544,-21 -208,-2 -421,-55 -619,56 -19,21 -40,23 -64,8 -14,-23 -12,-45 8,-64 245,-211 562,-219 841,-202 808,49 1613,54 2419,-4 143,-10 160,43 159,150z"/>
   <path class="fil45" d="M14877 4156c115,139 267,29 390,33 945,28 1892,52 2838,-6 64,-4 127,-18 191,-27 -1,18 -1,37 -1,56 -87,49 -161,115 -276,114 -985,-4 -1970,-4 -2955,0 -124,1 -237,-35 -355,-59 -3,-125 72,-134 168,-111z"/>
   <path class="fil125" d="M18295 3090c1,38 1,75 2,113 -1,37 -1,74 -2,111 -911,1 -1822,-3 -2732,4 -188,1 -412,102 -406,-227 258,173 535,138 830,122 619,-33 1242,-15 1863,-7 164,2 319,8 445,-116z"/>
   <path class="fil126" d="M18240 5388c-52,26 -73,83 -163,64 -479,-100 -962,-108 -1443,-2 -164,36 -116,-92 -131,-172l0 -1c100,-91 224,-80 344,-81 325,-3 651,-1 976,-2 134,0 262,-7 346,-133 31,-39 63,-74 120,-62 0,76 -1,151 -1,227 -42,46 3,119 -48,162z"/>
   <path class="fil127" d="M16446 5669c122,-99 262,-60 400,-58 480,5 960,2 1440,3 -1,39 -1,78 -2,116 -15,36 -32,72 -63,98 -81,51 -159,15 -238,-5 -499,-48 -998,-11 -1497,-13 -32,-7 -53,-26 -63,-57 -4,-32 4,-60 23,-84z"/>
   <path class="fil36" d="M16510 4943c16,-101 -77,-243 104,-283 40,42 74,90 123,122 440,49 880,25 1320,11 83,-2 164,-26 235,35 -1,38 -1,75 -2,113 -150,104 -318,143 -498,132 -403,-26 -810,63 -1208,-57 -26,-23 -51,-48 -74,-73z"/>
   <path class="fil128" d="M16558 4940c503,107 1009,59 1514,27 73,-5 146,-17 218,-26 0,19 0,39 -1,58 -16,18 -33,36 -49,53 -125,118 -279,139 -442,139 -355,1 -710,-11 -1064,6 -222,12 -232,-93 -176,-257z"/>
   <path class="fil129" d="M16615 4828c0,-56 -1,-112 -1,-168 506,-23 1014,45 1519,-37 50,-8 107,24 160,37 0,38 0,75 -1,112 -342,112 -694,38 -1041,53 -211,10 -424,7 -636,3z"/>
   <path class="fil130" d="M16615 4828c408,-118 826,-30 1239,-54 145,-9 292,-2 438,-2 2,19 2,38 0,56 -515,107 -1037,38 -1556,53 -40,1 -81,-35 -121,-53z"/>
   <path class="fil64" d="M14877 3987c0,19 0,38 0,56 -219,221 -371,221 -504,0 -9,-98 80,-146 113,-223 97,132 242,155 391,167z"/>
   <path class="fil131" d="M18240 5781c15,-17 30,-34 45,-51 -1,148 -1,296 -2,444 -14,-1 -29,-1 -43,-1 -10,-10 -20,-20 -30,-30 -29,-51 -35,-107 -36,-164 0,-74 24,-139 66,-198z"/>
   <path class="fil127" d="M18240 5388c3,-58 -12,-121 48,-163 0,109 -1,218 -1,327 -59,-42 -45,-105 -47,-164z"/>
   <path class="fil93" d="M4229 4996c-65,135 -176,173 -320,170 -316,-6 -631,0 -947,-3 -96,-1 -211,36 -255,-104 -13,-42 -66,-59 -88,-32 -184,228 -242,-32 -352,-87 63,-78 152,-55 232,-55 479,-2 959,2 1438,-3 119,-2 217,19 292,114z"/>
   <path class="fil132" d="M1988 4771c8,-253 265,-257 392,-391 597,86 1195,96 1793,0 -12,80 -24,160 -32,217 -608,0 -1211,1 -1815,-3 -65,-1 -105,-2 -117,73 -22,139 -135,95 -221,104z"/>
   <path class="fil93" d="M4397 4996c-21,53 -58,91 -112,112 0,-37 0,-75 0,-112 5,-31 -3,-80 45,-71 26,5 45,46 67,71z"/>
   <path class="fil34" d="M13647 5285c18,178 152,159 273,159 783,0 1567,10 2350,-8 169,-4 190,45 176,177 -73,119 -187,90 -299,88 -662,-12 -1325,-21 -1986,0 -828,26 -1654,-27 -2480,-28 -143,0 -305,-1 -222,-229 63,-38 55,-100 53,-160 76,0 153,0 229,0 317,105 643,41 964,43 275,2 555,59 825,-43 39,0 78,0 117,1z"/>
   <path class="fil133" d="M16558 4940c-5,133 -11,215 192,183 280,-43 572,-19 859,-13 213,4 423,-12 631,-58 -40,207 -202,222 -364,223 -458,3 -915,2 -1373,2 2,-112 5,-223 7,-334 16,-2 32,-3 48,-3z"/>
   <path class="fil126" d="M13530 5284c-13,102 -88,104 -166,104 -486,0 -971,0 -1457,0 -78,0 -153,-2 -166,-104 596,0 1193,0 1789,0z"/>
   <path class="fil134" d="M11459 5444c-6,112 28,166 158,165 557,-5 1115,-22 1671,9 1018,57 2036,-79 3053,23 34,3 70,-19 105,-28 0,18 0,37 0,56 0,18 0,37 0,56 -154,157 -356,129 -547,133 -1359,32 -2716,-87 -4075,-51 -140,4 -279,1 -417,28 -36,-2 -69,-12 -100,-29 -47,-41 -53,-86 -17,-137 56,-75 112,-150 169,-225z"/>
   <path class="fil127" d="M11290 5669c0,37 1,74 1,112 -113,103 -256,49 -372,40 -489,-38 -980,17 -1468,-36 -130,-14 -250,79 -381,21 -32,-21 -39,-48 -21,-81 -8,-137 51,-176 187,-157 573,82 1148,71 1720,5 145,-16 213,105 334,96z"/>
   <path class="fil126" d="M9049 5276c552,0 1105,-4 1658,4 104,2 293,-174 303,108 -545,8 -1092,31 -1636,12 -155,-5 -279,201 -438,44 -54,-117 -70,-209 113,-168z"/>
   <path class="fil128" d="M9049 5276c-114,6 -113,87 -113,168 -67,-47 -185,109 -224,-55 130,-30 178,-162 281,-225 140,-92 262,-222 448,-224 178,115 375,34 563,55 297,34 602,-62 894,57 -127,79 -269,54 -406,56 -412,4 -824,4 -1235,8 -108,1 -161,78 -208,160z"/>
   <path class="fil131" d="M9049 5725c0,18 0,37 0,55 36,31 83,54 72,114 -24,47 -61,74 -115,73 -37,-16 -48,-52 -67,-82 -18,-19 -37,-39 -56,-58 0,-34 -1,-68 -2,-102 18,-24 37,-24 57,-2 37,1 74,1 111,2z"/>
   <path class="fil135" d="M8938 5723c-19,0 -38,1 -57,2 -58,-55 -116,-111 -174,-166 118,-4 177,76 231,164z"/>
   <path class="fil136" d="M18240 6677c29,196 -20,302 -252,301 -2257,-11 -4513,-13 -6770,-22 -278,-2 -558,34 -835,-30 -128,-29 -146,40 -102,144 -36,0 -73,-1 -110,-1 -88,-40 -142,-125 -227,-167 -110,-95 -219,-189 -328,-284 -122,-84 -206,-207 -318,-301 -89,-60 -150,-137 -152,-249 17,-21 39,-33 65,-38 115,4 176,92 251,159 55,65 131,116 147,208 175,231 367,344 697,334 1052,-33 2106,-3 3159,2 1543,7 3086,14 4629,17 49,0 97,-47 146,-73z"/>
   <path class="fil137" d="M10394 7126c2440,0 4881,-1 7321,3 105,0 255,-75 301,109 -2441,0 -4881,1 -7322,-4 -104,0 -255,76 -300,-108z"/>
   <path class="fil138" d="M9944 6902c114,2 175,78 227,167 -1,19 -1,38 -2,57 -55,-38 -111,-76 -167,-115 -19,-36 -39,-73 -58,-109z"/>
   <path class="fil124" d="M10338 3876c0,-19 0,-38 0,-57 561,1 1122,-15 1681,56 -93,105 -196,138 -347,126 -348,-25 -699,-11 -1048,-14 -110,0 -227,18 -286,-111z"/>
   <path class="fil64" d="M9665 4324c-46,60 -83,44 -115,-14 -35,-66 -9,-95 59,-99 19,38 37,75 56,113z"/>
   <path class="fil139" d="M2715 3539c20,-102 36,-207 169,-224 538,0 1077,-6 1615,3 171,3 353,-59 514,52 -516,0 -1033,8 -1549,-4 -185,-4 -300,55 -356,229 -18,94 -120,63 -168,112 -53,21 -91,59 -112,112 -251,-7 -130,-164 -113,-280z"/>
   <path class="fil81" d="M2940 3707c56,-37 112,-75 168,-112 371,0 743,4 1114,-2 141,-2 283,37 410,-103 104,-114 105,65 157,105 -36,66 -76,144 -161,134 -562,-68 -1126,19 -1688,-22z"/>
   <path class="fil41" d="M9441 4660c-17,-221 164,-47 224,-112 -40,102 -206,130 -168,280l-28 0c0,0 -28,0 -28,0 0,-56 0,-112 0,-168z"/>
   <path class="fil140" d="M9503 293c-74,-58 12,-118 -1,-176 44,2 89,4 134,6 17,78 -62,104 -85,160 -16,4 -32,7 -48,10z"/>
   <path class="fil90" d="M810 3259c-18,0 -37,0 -56,0 -18,-56 -37,-113 -56,-169 361,-203 753,-23 1126,-85 12,-2 34,56 51,86 -11,65 17,184 -106,136 -307,-117 -628,157 -928,-43 -10,25 -20,50 -31,75z"/>
   <path class="fil141" d="M417 2530c19,-37 38,-74 57,-112 95,11 213,-91 280,57 42,108 -65,117 -112,167 -53,22 -91,59 -112,112 -19,0 -37,1 -56,1l0 -57c-46,-24 -23,-82 -56,-112 0,-18 0,-37 -1,-56z"/>
   <path class="fil142" d="M10674 3539c-23,-105 52,-161 112,-224 346,119 704,25 1054,57 117,11 245,-46 347,55 -496,154 -1006,109 -1513,112z"/>
   <path class="fil142" d="M12299 3427c59,-82 147,-48 224,-56 -67,48 -110,193 -224,56z"/>
   <path class="fil143" d="M2210 4203c-20,-31 -42,-50 -44,-70 -3,-37 15,-72 59,-60 16,4 31,41 30,63 0,19 -24,37 -45,67z"/>
   <path class="fil144" d="M3060 2085c-58,-34 -117,-41 -176,-3 -61,54 -120,23 -180,-3 -106,-61 -217,-41 -329,-21 -27,3 -55,2 -82,-1 -320,-8 -630,-63 -922,-199 37,-56 74,-112 112,-168 0,-19 0,-38 0,-56 318,-11 621,101 943,83 1613,-87 3228,-59 4843,-59 157,0 319,-22 468,54 117,106 -4,197 -18,295 -86,84 -195,44 -292,44 -1349,3 -2698,2 -4047,3 -73,0 -150,-26 -217,25 -34,2 -69,4 -103,6z"/>
   <path class="fil145" d="M3163 2079c10,-79 57,-63 119,-63 1405,6 2811,8 4216,9 73,0 151,15 206,-55 18,-20 37,-19 55,0 49,70 127,53 196,63 -47,62 -116,52 -179,52 -1538,-1 -3075,-4 -4613,-6z"/>
   <path class="fil146" d="M5518 2811c0,37 0,74 -1,112 -535,0 -1071,1 -1607,-2 -92,-1 -215,44 -242,-110 617,0 1234,0 1850,0z"/>
   <path class="fil147" d="M2661 2419c-2,34 -4,69 -5,103 -56,-9 -114,-79 -165,8 -459,110 -926,120 -1394,109 -139,-4 -224,-74 -231,-221 21,-53 59,-91 112,-112 131,-34 262,-87 393,0 100,100 227,51 342,54 317,8 635,-17 948,59z"/>
   <path class="fil148" d="M866 2418c86,141 215,161 373,175 422,36 831,-134 1252,-63 -162,161 -341,199 -575,157 -224,-40 -463,-2 -694,13 -198,13 -388,-27 -580,-58 37,-56 75,-112 112,-168 38,-18 75,-37 112,-56z"/>
   <path class="fil149" d="M1371 2306c-131,-14 -262,109 -393,0 0,-38 0,-75 0,-113 96,-53 171,-128 225,-223 37,-19 74,-38 112,-56 346,123 705,119 1064,112 113,-70 225,23 337,0 56,19 112,37 168,56 -19,37 -38,75 -56,112 -388,0 -777,4 -1165,-3 -119,-2 -217,20 -292,115z"/>
   <path class="fil150" d="M9553 2978c-45,157 -204,32 -280,113 -29,36 -64,60 -112,55 -131,7 -166,-146 -280,-168 15,-52 -31,-160 74,-136 199,46 467,-198 598,136z"/>
   <path class="fil45" d="M14429 4435l0 113 -112 0c-131,0 -262,0 -393,-1 4,-150 158,-180 225,-280 126,1 220,56 280,168z"/>
   <path class="fil89" d="M923 3539c0,-46 10,-88 55,-112 296,80 560,-82 841,-112 -162,276 -407,415 -721,444 184,-267 -120,-145 -175,-220z"/>
   <path class="fil53" d="M10170 3595c-29,58 -65,109 -139,138 -28,-83 30,-109 82,-138 19,0 38,0 57,0z"/>
   <path class="fil151" d="M8881 737c-90,172 -287,236 -393,392 -75,46 -117,147 -227,137 -30,-5 -59,-11 -88,-18 -597,-22 -1192,-41 -1788,-38 -1298,7 -2595,0 -3892,4 -184,1 -345,-8 -338,-253 19,-38 38,-75 56,-112 106,-205 296,-196 486,-196 1933,0 3866,-1 5798,3 130,0 285,-74 386,81z"/>
   <path class="fil152" d="M8881 737c-193,0 -386,0 -579,0 -1892,0 -3783,1 -5674,-2 -152,0 -298,1 -417,114 -65,-96 92,-136 56,-224 119,-75 252,-56 381,-56 1888,-1 3777,2 5666,-3 245,0 490,-35 735,-53 -37,74 -75,148 -112,223 -19,0 -38,1 -56,1z"/>
   <path class="fil153" d="M2155 961c57,164 170,175 335,174 1675,-10 3350,-6 5025,-5 223,0 444,139 672,-8 49,-32 68,66 77,119 49,94 -3,130 -84,150 -1209,-15 -2418,-5 -3627,-5 -763,1 -1526,-15 -2288,13 -138,5 -283,19 -390,-102 19,-37 37,-74 56,-112 121,-29 161,-138 224,-224z"/>
   <path class="fil154" d="M7760 1746c-988,0 -1976,16 -2963,-5 -819,-18 -1634,66 -2452,66 -305,0 -590,-36 -862,-173 67,-83 185,-114 224,-224 19,-1 37,-1 56,-1 1859,54 3718,8 5577,27 251,2 499,-70 750,-20 143,73 30,118 -19,170 -88,83 -126,266 -311,160z"/>
   <path class="fil155" d="M8152 1465c-2012,123 -4025,25 -6037,56 -130,3 -265,19 -352,-112 21,-53 59,-90 112,-112 248,0 497,0 745,0 1745,0 3490,0 5235,0 121,0 243,-13 353,56 28,61 -5,91 -56,112z"/>
   <path class="fil156" d="M2379 2026c-303,119 -618,36 -927,47 -88,3 -70,-123 -137,-159 18,-19 37,-38 56,-56 346,-6 670,127 1008,168z"/>
   <path class="fil157" d="M9161 3146c24,-45 66,-54 112,-55 37,37 75,74 112,111 -78,5 -115,174 -224,57 0,-38 0,-75 0,-113z"/>
   <path class="fil158" d="M14429 4435c-125,-3 -181,-122 -280,-168 0,-18 0,-36 0,-54 97,-27 103,-174 224,-170 168,181 336,90 504,0 19,0 38,0 56,0 -1,47 -11,88 -56,113 -56,37 -112,74 -168,111 -103,40 -150,175 -280,168z"/>
   <path class="fil159" d="M418 2586c45,24 55,66 56,112 -56,14 -112,90 -168,0 54,-21 91,-58 112,-112z"/>
   <path class="fil102" d="M18184 1353c-9,80 -50,125 -131,96 -210,-75 -426,-37 -639,-38 -2371,-3 -4742,-2 -7113,0 -159,0 -315,-9 -468,-58 83,-92 193,-54 291,-54 2540,-2 5081,-2 7621,-2 149,0 296,12 439,56z"/>
   <path class="fil101" d="M8152 1465c19,-37 37,-74 56,-112 45,-24 55,-66 56,-112 19,0 37,0 56,0 47,-1 84,19 112,56 0,0 1,1 1,1 -29,130 -168,172 -226,279 -121,-10 -94,130 -167,168 -50,-56 -44,-112 0,-168 37,-37 74,-74 112,-112z"/>
   <path class="fil160" d="M8214 1750c-74,-55 13,-115 -5,-172 40,1 79,1 119,1 -6,79 -41,137 -114,171z"/>
   <path class="fil161" d="M8432 1297c-46,-1 -88,-11 -112,-56 50,-47 50,-167 168,-112 -18,56 -37,112 -56,168z"/>
   <path class="fil162" d="M9328 6290c129,80 251,167 288,328 -22,1 -43,3 -64,4 -205,18 -202,-172 -279,-281 11,-25 29,-42 55,-51z"/>
   <path class="fil163" d="M9328 6290c-19,17 -37,34 -55,51 -56,0 -112,0 -168,0 78,-201 -198,-272 -166,-456 22,20 44,40 66,60 52,36 140,27 152,117 57,76 114,152 171,228z"/>
   <path class="fil164" d="M8040 1577c0,56 0,112 0,168 -102,65 -215,116 -281,225 -19,0 -37,0 -55,0 18,-75 37,-150 56,-224 161,57 150,-173 280,-169z"/>
   <path class="fil131" d="M9609 6397c-75,-36 -131,-92 -168,-168 181,-108 377,-147 587,-141 1912,60 3825,63 5737,50 652,-5 1304,-73 1957,-47 175,7 356,-16 518,82l0 0c9,182 -115,226 -254,221 -454,-16 -909,44 -1364,-35 -149,-25 -311,36 -466,36 -1445,4 -2889,2 -4333,2 -738,0 -1476,0 -2214,0z"/>
   <path class="fil165" d="M16447 5781c541,-83 1083,-99 1625,0 54,207 -112,179 -216,183 -340,14 -681,13 -1021,1 -134,-5 -254,15 -365,91 -126,45 -258,39 -388,39 -1419,1 -2838,1 -4258,0 -138,-1 -281,15 -408,-66 -47,-46 -47,-97 -14,-151 123,-94 267,-66 405,-68 1382,-21 2763,44 4144,26 167,-2 336,13 496,-55z"/>
   <path class="fil19" d="M16447 5781c-46,184 -196,108 -300,108 -1582,5 -3163,4 -4744,4 -48,21 -68,-8 -83,-45 -1,-27 7,-49 26,-67 144,-43 290,-55 441,-59 1324,-38 2647,85 3971,60 231,-4 462,-1 688,-57 0,18 1,37 1,56z"/>
   <path class="fil166" d="M16503 6005c22,-138 111,-129 225,-125 385,14 772,10 1158,13 85,0 172,4 186,-112 56,34 112,35 168,0 0,74 0,149 0,224 -29,24 -59,54 -94,57 -517,44 -1034,41 -1552,2 -36,-3 -66,-32 -91,-59z"/>
   <path class="fil135" d="M16503 6005l1737 0c0,56 0,112 0,168 -183,73 -365,-10 -548,-3 -1927,78 -3854,77 -5781,48 -659,-10 -1319,-24 -1978,-55 -177,-9 -315,162 -492,66 -74,-56 -149,-113 -223,-169 -22,-25 -34,-54 -37,-87 105,-263 268,-69 409,-53 490,14 980,2 1471,7 119,1 242,-13 342,78l5100 0z"/>
   <path class="fil167" d="M9497 6005c-93,-67 -187,-231 -280,0 -103,27 -98,-52 -111,-113 -19,-37 -38,-74 -57,-112 747,-125 1495,-51 2242,1 18,0 37,0 55,0 0,18 0,37 1,56 -79,125 -205,111 -326,111 -410,2 -820,-1 -1230,2 -100,0 -207,-21 -294,55z"/>
   <path class="fil120" d="M9106 5892c37,37 74,75 111,113 0,18 0,37 1,55 -20,1 -41,2 -61,2 -49,-41 -131,-39 -152,-117 33,-18 67,-36 101,-53z"/>
   <path class="fil156" d="M2716 2026c-112,126 -224,-41 -337,0 113,-85 225,-85 337,0z"/>
   <path class="fil166" d="M9497 6005c27,-155 150,-110 243,-110 381,-4 761,-6 1141,0 159,2 314,-10 466,-58 18,18 37,37 56,56 0,37 0,74 0,112 -636,0 -1271,0 -1906,0z"/>
  </g>
 </g>
</svg>
